<svg width="128" height="128" viewBox="0 0 128 128" fill="none" xmlns="http://www.w3.org/2000/svg">
<path d="M60.6934 10.768C56.7634 14.43 53.6113 18.846 51.425 23.7526C49.2388 28.6593 48.0632 33.956 47.9685 39.3268C47.8737 44.6976 48.8617 50.0325 50.8735 55.0132C52.8853 59.9939 55.8796 64.5184 59.678 68.3167C63.4763 72.115 68.0008 75.1094 72.9815 77.1212C77.9622 79.133 83.2971 80.121 88.6679 80.0262C94.0387 79.9315 99.3354 78.7559 104.242 76.5697C109.149 74.3834 113.565 71.2313 117.227 67.3013C115.531 95.2213 92.352 117.333 64.0054 117.333C34.544 117.333 10.6667 93.456 10.6667 64C10.6667 35.6533 32.7787 12.4747 60.6934 10.768Z" fill="white"/>
</svg>
