<svg width="128" height="128" viewBox="0 0 128 128" fill="none" xmlns="http://www.w3.org/2000/svg">
<path d="M64 101.333C65.3063 101.334 66.5671 101.813 67.5433 102.681C68.5195 103.549 69.1431 104.745 69.296 106.043L69.3333 106.667V112C69.3318 113.359 68.8113 114.667 67.8781 115.655C66.9449 116.644 65.6696 117.239 64.3125 117.318C62.9555 117.398 61.6193 116.956 60.5769 116.084C59.5344 115.211 58.8645 113.974 58.704 112.624L58.6666 112V106.667C58.6666 105.252 59.2285 103.896 60.2287 102.895C61.2289 101.895 62.5855 101.333 64 101.333ZM97.6693 90.1867L98.1706 90.6293L101.904 94.3627C102.86 95.3224 103.416 96.6103 103.457 97.9647C103.499 99.3191 103.023 100.638 102.127 101.655C101.23 102.671 99.981 103.308 98.6321 103.437C97.2832 103.565 95.9359 103.176 94.864 102.347L94.3626 101.904L90.6293 98.1707C89.709 97.2519 89.156 96.0286 89.0744 94.7307C88.9929 93.4328 89.3883 92.1498 90.1864 91.1231C90.9844 90.0963 92.1302 89.3966 93.408 89.1554C94.6859 88.9141 96.0079 89.1481 97.1253 89.8133L97.6693 90.1867ZM37.3706 90.6293C38.2889 91.5477 38.8405 92.7696 38.922 94.0657C39.0035 95.3618 38.6093 96.6432 37.8133 97.6693L37.3706 98.1707L33.6373 101.904C32.6775 102.861 31.3897 103.416 30.0353 103.457C28.6809 103.499 27.3615 103.023 26.3452 102.127C25.3288 101.23 24.6917 99.9811 24.5632 98.6321C24.4347 97.2832 24.8244 95.936 25.6533 94.864L26.096 94.3627L29.8293 90.6293C30.8295 89.6295 32.1858 89.0678 33.6 89.0678C35.0142 89.0678 36.3705 89.6295 37.3706 90.6293ZM21.3333 58.6667C22.6927 58.6682 24.0001 59.1887 24.9886 60.1219C25.9771 61.055 26.5719 62.3304 26.6516 63.6874C26.7312 65.0445 26.2897 66.3807 25.4172 67.4231C24.5447 68.4655 23.3071 69.1354 21.9573 69.296L21.3333 69.3333H16C14.6406 69.3318 13.3331 68.8113 12.3447 67.8781C11.3562 66.945 10.7614 65.6696 10.6817 64.3126C10.6021 62.9555 11.0436 61.6193 11.9161 60.5769C12.7885 59.5345 14.0261 58.8646 15.376 58.704L16 58.6667H21.3333ZM112 58.6667C113.359 58.6682 114.667 59.1887 115.655 60.1219C116.644 61.055 117.239 62.3304 117.318 63.6874C117.398 65.0445 116.956 66.3807 116.084 67.4231C115.211 68.4655 113.974 69.1354 112.624 69.296L112 69.3333H106.667C105.307 69.3318 104 68.8113 103.011 67.8781C102.023 66.945 101.428 65.6696 101.348 64.3126C101.269 62.9555 101.71 61.6193 102.583 60.5769C103.455 59.5345 104.693 58.8646 106.043 58.704L106.667 58.6667H112ZM33.136 25.6533L33.6373 26.096L37.3706 29.8293C38.3272 30.7891 38.8825 32.077 38.9239 33.4314C38.9652 34.7858 38.4895 36.1051 37.5933 37.1215C36.6971 38.1378 35.4477 38.775 34.0988 38.9035C32.7499 39.032 31.4026 38.6422 30.3306 37.8133L29.8293 37.3707L26.096 33.6373C25.1791 32.7183 24.6289 31.4964 24.5486 30.2007C24.4682 28.905 24.8632 27.6245 25.6595 26.5992C26.4558 25.5739 27.5987 24.8743 28.8739 24.6314C30.1492 24.3886 31.4693 24.6192 32.5866 25.28L33.136 25.6533ZM101.904 26.096C102.822 27.0144 103.374 28.2362 103.455 29.5324C103.537 30.8285 103.143 32.1098 102.347 33.136L101.904 33.6373L98.1706 37.3707C97.2109 38.3272 95.923 38.8825 94.5686 38.9239C93.2142 38.9652 91.8948 38.4895 90.8785 37.5933C89.8621 36.6972 89.225 35.4477 89.0965 34.0988C88.968 32.7499 89.3578 31.4026 90.1866 30.3307L90.6293 29.8293L94.3626 26.096C95.3628 25.0962 96.7191 24.5345 98.1333 24.5345C99.5475 24.5345 100.904 25.0962 101.904 26.096ZM64 10.6667C65.3063 10.6668 66.5671 11.1464 67.5433 12.0145C68.5195 12.8825 69.1431 14.0787 69.296 15.376L69.3333 16V21.3333C69.3318 22.6927 68.8113 24.0002 67.8781 24.9886C66.9449 25.9771 65.6696 26.5719 64.3125 26.6516C62.9555 26.7312 61.6193 26.2897 60.5769 25.4173C59.5344 24.5448 58.8645 23.3072 58.704 21.9573L58.6666 21.3333V16C58.6666 14.5855 59.2285 13.229 60.2287 12.2288C61.2289 11.2286 62.5855 10.6667 64 10.6667ZM64 37.3333C69.2249 37.333 74.3348 38.8677 78.6951 41.7467C83.0553 44.6256 86.4737 48.7221 88.5256 53.5273C90.5776 58.3324 91.1728 63.6345 90.2372 68.775C89.3016 73.9155 86.8765 78.6679 83.2631 82.4419C79.6496 86.2159 75.0071 88.8453 69.9121 90.0034C64.8172 91.1615 59.4942 90.7973 54.6044 88.9561C49.7146 87.1149 45.4735 83.8777 42.4077 79.6467C39.342 75.4158 37.5867 70.3774 37.36 65.1573L37.3333 64L37.36 62.8427C37.6582 55.9773 40.5952 49.4921 45.5585 44.7395C50.5218 39.9869 57.1282 37.3337 64 37.3333Z" fill="#767676"/>
</svg>
